<?xml version="1.0" encoding="UTF-8" standalone="no"?>
<svg width="72px" height="72px" viewBox="0 0 72 72" version="1.1" xmlns="http://www.w3.org/2000/svg" xmlns:xlink="http://www.w3.org/1999/xlink">
    <!-- Generator: sketchtool 40.1 (33804) - http://www.bohemiancoding.com/sketch -->
    <title>A49852EB-6227-42BE-A871-3B6B8938C215</title>
    <desc>Created with sketchtool.</desc>
    <defs>
        <polygon id="path-1" points="0 29.8827931 32 29.8827931 32 -0.000310344827 0 -0.000310344827"/>
    </defs>
    <g id="Final-Design" stroke="none" stroke-width="1" fill="none" fill-rule="evenodd">
        <g id="Get-Help" transform="translate(-762.000000, -215.000000)">
            <g id="Group-9" transform="translate(318.000000, 127.000000)">
                <g id="Group-18">
                    <g id="Group-7" transform="translate(445.000000, 89.000000)">
                        <g id="Group-2-Copy-2" stroke-linecap="round" stroke-width="1.5" stroke="#37474F" stroke-linejoin="round">
                            <g id="Page-1">
                                <path d="M69.2963118,34.9304516 C69.2963118,53.9102366 53.9098602,69.2966882 34.9300753,69.2966882 C15.9502903,69.2966882 0.564591398,53.9102366 0.564591398,34.9304516 C0.564591398,15.9506667 15.9502903,0.564215054 34.9300753,0.564215054 C53.9098602,0.564215054 69.2963118,15.9506667 69.2963118,34.9304516 L69.2963118,34.9304516 Z" id="Stroke-1"/>
                            </g>
                        </g>
                        <g id="Page-1" transform="translate(19.000000, 20.000000)">
                            <path d="M21.5952516,8.60110345 C21.3196387,8.60110345 21.0450581,8.49144828 20.8417032,8.2742069 C19.5730581,6.91489655 17.8574452,6.16696552 16.0138323,6.16696552 C14.1702194,6.16696552 12.4556387,6.91489655 11.1859613,8.2742069 C10.7937032,8.69006897 10.1413161,8.71075862 9.72634839,8.32075862 C9.31034839,7.9317931 9.28867097,7.27696552 9.67886452,6.85903448 C11.3428645,5.07972414 13.5931871,4.098 16.0138323,4.098 C18.4344774,4.098 20.6848,5.07972414 22.3488,6.85903448 C22.7379613,7.27696552 22.7162839,7.9317931 22.3013161,8.32075862 C22.1020903,8.508 21.8481548,8.60110345 21.5952516,8.60110345 L21.5952516,8.60110345 Z" id="Fill-1" fill="#37474F"/>
                            <path d="M24.3009032,5.62603448 C24.0294194,5.62603448 23.7579355,5.51844828 23.5545806,5.30637931 C21.5612903,3.2187931 18.8825806,2.06948276 16.0139355,2.06948276 C13.1442581,2.06948276 10.4665806,3.2187931 8.47225806,5.30637931 C8.07690323,5.71913793 7.42451613,5.73465517 7.01264516,5.33948276 C6.60077419,4.94431034 6.58632258,4.28948276 6.98064516,3.87672414 C9.36825806,1.37741379 12.5754839,0.000517241378 16.0139355,0.000517241378 C19.4513548,0.000517241378 22.6596129,1.37741379 25.0472258,3.87672414 C25.4405161,4.28948276 25.4260645,4.94431034 25.0141935,5.33948276 C24.8149677,5.53086207 24.5579355,5.62603448 24.3009032,5.62603448" id="Fill-3" fill="#37474F"/>
                            <path d="M21.130529,25.7731034 L10.8884645,25.7731034 C10.3186581,25.7731034 9.85620645,25.3106897 9.85620645,24.7386207 C9.85620645,24.1665517 10.3186581,23.7041379 10.8884645,23.7041379 L21.130529,23.7041379 C21.7003355,23.7041379 22.1627871,24.1665517 22.1627871,24.7386207 C22.1627871,25.3106897 21.7003355,25.7731034 21.130529,25.7731034" id="Fill-5" fill="#37474F"/>
                            <mask id="mask-2" fill="white">
                                <use xlink:href="#path-1"/>
                            </mask>
                            <g id="Clip-8"/>
                            <path d="M2.06451613,27.8138276 L29.9354839,27.8138276 L29.9354839,14.3655517 L2.06451613,14.3655517 L2.06451613,27.8138276 Z M30.9677419,29.8827931 L1.03225806,29.8827931 C0.462451613,29.8827931 0,29.4203793 0,28.8483103 L0,13.331069 C0,12.759 0.462451613,12.2965862 1.03225806,12.2965862 L30.9677419,12.2965862 C31.5375484,12.2965862 32,12.759 32,13.331069 L32,28.8483103 C32,29.4203793 31.5375484,29.8827931 30.9677419,29.8827931 L30.9677419,29.8827931 Z" id="Fill-7" fill="#37474F" mask="url(#mask-2)"/>
                            <path d="M7.12247742,18.5034828 C6.84376774,18.5034828 6.57538065,18.3896897 6.38957419,18.2034828 C6.19344516,18.006931 6.09021935,17.7379655 6.09021935,17.469 C6.09021935,17.2000345 6.19344516,16.9300345 6.38957419,16.7345172 C6.77150968,16.3517586 7.4528,16.3517586 7.84505806,16.7345172 C8.0411871,16.9300345 8.15473548,17.1886552 8.15473548,17.469 C8.15473548,17.7379655 8.0411871,18.006931 7.85538065,18.2034828 C7.64892903,18.399 7.39086452,18.5034828 7.12247742,18.5034828" id="Fill-9" fill="#37474F" mask="url(#mask-2)"/>
                            <path d="M10.2192516,18.5034828 C9.94054194,18.5034828 9.67215484,18.3896897 9.48634839,18.2034828 C9.29021935,18.006931 9.18699355,17.7379655 9.18699355,17.469 C9.18699355,17.1886552 9.29021935,16.9300345 9.48634839,16.7345172 C9.86828387,16.3517586 10.5598968,16.3517586 10.9418323,16.7345172 C11.1379613,16.9300345 11.2515097,17.2000345 11.2515097,17.469 C11.2515097,17.7379655 11.1379613,18.006931 10.9521548,18.2034828 C10.7560258,18.3896897 10.4876387,18.5034828 10.2192516,18.5034828" id="Fill-10" fill="#37474F" mask="url(#mask-2)"/>
                            <path d="M13.3160258,18.5034828 C13.0476387,18.5034828 12.7792516,18.399 12.5831226,18.2034828 C12.3869935,18.006931 12.2837677,17.7379655 12.2837677,17.469 C12.2837677,17.1886552 12.3869935,16.9300345 12.5831226,16.7345172 C12.9753806,16.3517586 13.656671,16.3517586 14.0386065,16.7345172 C14.2347355,16.9300345 14.3482839,17.2000345 14.3482839,17.469 C14.3482839,17.7379655 14.2347355,18.006931 14.0386065,18.2034828 C13.8528,18.3896897 13.5844129,18.5034828 13.3160258,18.5034828" id="Fill-11" fill="#37474F" mask="url(#mask-2)"/>
                            <path d="M16.4128,18.5034828 C16.1340903,18.5034828 15.8760258,18.3896897 15.6798968,18.2034828 C15.4837677,18.006931 15.3805419,17.7379655 15.3805419,17.469 C15.3805419,17.1886552 15.4837677,16.9300345 15.6798968,16.7345172 C16.0618323,16.3517586 16.7534452,16.3517586 17.1353806,16.7345172 C17.3315097,16.9300345 17.4450581,17.1886552 17.4450581,17.469 C17.4450581,17.7379655 17.3315097,18.006931 17.1353806,18.2034828 C16.9495742,18.3896897 16.6811871,18.5034828 16.4128,18.5034828" id="Fill-12" fill="#37474F" mask="url(#mask-2)"/>
                            <path d="M19.5095742,18.5034828 C19.2308645,18.5034828 18.9728,18.3896897 18.776671,18.2034828 C18.5805419,18.006931 18.4773161,17.7379655 18.4773161,17.469 C18.4773161,17.2000345 18.5805419,16.9300345 18.776671,16.7345172 C19.1586065,16.3517586 19.8398968,16.3517586 20.2321548,16.7345172 C20.4282839,16.9300345 20.5418323,17.1886552 20.5418323,17.469 C20.5418323,17.7379655 20.4282839,18.006931 20.2424774,18.2034828 C20.0463484,18.399 19.7779613,18.5034828 19.5095742,18.5034828" id="Fill-13" fill="#37474F" mask="url(#mask-2)"/>
                            <path d="M22.6063484,18.5034828 C22.3276387,18.5034828 22.0592516,18.3896897 21.8734452,18.2034828 C21.6773161,18.006931 21.5740903,17.7379655 21.5740903,17.469 C21.5740903,17.2000345 21.6773161,16.9300345 21.8734452,16.7345172 C22.2553806,16.3517586 22.9469935,16.3517586 23.328929,16.7345172 C23.5250581,16.9300345 23.6386065,17.2000345 23.6386065,17.469 C23.6386065,17.7379655 23.5250581,18.006931 23.3392516,18.2034828 C23.1431226,18.3896897 22.8747355,18.5034828 22.6063484,18.5034828" id="Fill-14" fill="#37474F" mask="url(#mask-2)"/>
                            <path d="M25.7031226,18.5034828 C25.4347355,18.5034828 25.1663484,18.399 24.9702194,18.2034828 C24.7740903,18.006931 24.6708645,17.7379655 24.6708645,17.469 C24.6708645,17.1886552 24.7740903,16.9300345 24.9702194,16.7345172 C25.3624774,16.3517586 26.0437677,16.3517586 26.4257032,16.7345172 C26.6218323,16.9300345 26.7353806,17.2000345 26.7353806,17.469 C26.7353806,17.7379655 26.6218323,18.006931 26.4257032,18.2034828 C26.2398968,18.3896897 25.9715097,18.5034828 25.7031226,18.5034828" id="Fill-15" fill="#37474F" mask="url(#mask-2)"/>
                            <path d="M8.15473548,21.606931 C7.87602581,21.606931 7.61796129,21.4931379 7.42183226,21.306931 C7.22570323,21.1103793 7.12247742,20.8517586 7.12247742,20.5724483 C7.12247742,20.2921034 7.22570323,20.0334828 7.42183226,19.8379655 C7.80376774,19.4552069 8.49538065,19.4552069 8.87731613,19.8379655 C9.07344516,20.0334828 9.18699355,20.3034828 9.18699355,20.5724483 C9.18699355,20.8414138 9.07344516,21.1103793 8.87731613,21.306931 C8.69150968,21.4931379 8.42312258,21.606931 8.15473548,21.606931" id="Fill-16" fill="#37474F" mask="url(#mask-2)"/>
                            <path d="M11.2515097,21.606931 C10.9831226,21.606931 10.7147355,21.5024483 10.5186065,21.306931 C10.3224774,21.1103793 10.2192516,20.8517586 10.2192516,20.5724483 C10.2192516,20.3034828 10.3224774,20.0334828 10.5186065,19.8379655 C10.9108645,19.4552069 11.5921548,19.4552069 11.9740903,19.8379655 C12.1702194,20.0334828 12.2837677,20.3034828 12.2837677,20.5724483 C12.2837677,20.8414138 12.1702194,21.1103793 11.9740903,21.306931 C11.7882839,21.4931379 11.5198968,21.606931 11.2515097,21.606931" id="Fill-17" fill="#37474F" mask="url(#mask-2)"/>
                            <path d="M14.3482839,21.606931 C14.0695742,21.606931 13.8115097,21.4931379 13.6153806,21.306931 C13.4192516,21.1103793 13.3160258,20.8517586 13.3160258,20.5724483 C13.3160258,20.3034828 13.4192516,20.0334828 13.6153806,19.8379655 C13.9973161,19.4552069 14.688929,19.4552069 15.0708645,19.8379655 C15.2669935,20.0334828 15.3805419,20.3034828 15.3805419,20.5724483 C15.3805419,20.8414138 15.2669935,21.1103793 15.0708645,21.306931 C14.8850581,21.4931379 14.616671,21.606931 14.3482839,21.606931" id="Fill-18" fill="#37474F" mask="url(#mask-2)"/>
                            <path d="M17.4450581,21.606931 C17.1663484,21.606931 16.9082839,21.4931379 16.7121548,21.306931 C16.5160258,21.1103793 16.4128,20.8414138 16.4128,20.5724483 C16.4128,20.3034828 16.5160258,20.0334828 16.7121548,19.8379655 C17.0940903,19.4552069 17.7857032,19.4552069 18.1676387,19.8379655 C18.3637677,20.0334828 18.4773161,20.2921034 18.4773161,20.5724483 C18.4773161,20.8517586 18.3637677,21.1103793 18.1676387,21.306931 C17.9715097,21.5024483 17.7134452,21.606931 17.4450581,21.606931" id="Fill-19" fill="#37474F" mask="url(#mask-2)"/>
                            <path d="M20.5418323,21.606931 C20.2734452,21.606931 20.0050581,21.4931379 19.808929,21.306931 C19.6128,21.1103793 19.5095742,20.8414138 19.5095742,20.5724483 C19.5095742,20.3034828 19.6128,20.0334828 19.808929,19.8379655 C20.1908645,19.4552069 20.8824774,19.4552069 21.2644129,19.8379655 C21.4605419,20.0334828 21.5740903,20.2921034 21.5740903,20.5724483 C21.5740903,20.8517586 21.4605419,21.1103793 21.2644129,21.306931 C21.0786065,21.4931379 20.8102194,21.606931 20.5418323,21.606931" id="Fill-20" fill="#37474F" mask="url(#mask-2)"/>
                            <path d="M23.6386065,21.606931 C23.3598968,21.606931 23.1018323,21.4931379 22.9057032,21.306931 C22.7095742,21.1103793 22.6063484,20.8517586 22.6063484,20.5724483 C22.6063484,20.2921034 22.7095742,20.0334828 22.9057032,19.8379655 C23.2876387,19.4552069 23.9792516,19.4552069 24.3611871,19.8379655 C24.5573161,20.0334828 24.6708645,20.3034828 24.6708645,20.5724483 C24.6708645,20.8414138 24.5573161,21.1103793 24.3611871,21.306931 C24.1753806,21.4931379 23.9069935,21.606931 23.6386065,21.606931" id="Fill-21" fill="#37474F" mask="url(#mask-2)"/>
                        </g>
                    </g>
                </g>
            </g>
        </g>
    </g>
</svg>