<?xml version="1.0" encoding="UTF-8" standalone="no"?>
<svg width="70px" height="70px" viewBox="0 0 70 70" version="1.1" xmlns="http://www.w3.org/2000/svg" xmlns:xlink="http://www.w3.org/1999/xlink">
    <!-- Generator: Sketch 41.2 (35397) - http://www.bohemiancoding.com/sketch -->
    <title>Group 3</title>
    <desc>Created with Sketch.</desc>
    <defs/>
    <g id="Final-Design" stroke="none" stroke-width="1" fill="none" fill-rule="evenodd">
        <g id="Term-Deposit-Bar" transform="translate(-189.000000, -502.000000)">
            <g id="Group-3" transform="translate(189.000000, 502.000000)">
                <g id="Page-1" fill="#00BCD4">
                    <path d="M34.9300753,69.2966882 C15.9502903,69.2966882 0.564591398,53.9102366 0.564591398,34.9304516 C0.564591398,15.9506667 15.9502903,0.564215054 34.9300753,0.564215054 C53.9098602,0.564215054 69.2963118,15.9506667 69.2963118,34.9304516 C69.2963118,53.9102366 53.9098602,69.2966882 34.9300753,69.2966882 Z" id="Stroke-1"/>
                </g>
                <g id="Page-1" transform="translate(18.000000, 23.000000)" stroke="#FFFFFF" stroke-width="1.5" stroke-linecap="round" stroke-linejoin="round">
                    <g id="Group-17" transform="translate(0.000000, 0.996150)">
                        <polyline id="Stroke-1" points="19.60572 16.42125 11.71812 19.8891667 0.60012 14.268"/>
                        <path d="M35.1114,10.0968333 L28.0734,13.0451667" id="Stroke-3"/>
                        <polyline id="Stroke-5" points="35.1114 6.467 23.8374 0.816833333 0.5994 10.639375"/>
                        <path d="M28.07352,9.59634167 L35.11152,6.46675833" id="Stroke-7"/>
                        <polyline id="Stroke-9" points="0.6 10.6388917 11.718 16.25885 19.6056 12.7619333"/>
                        <polyline id="Stroke-11" points="19.60572 20.1682917 11.71812 23.6120417 0.60012 17.990875"/>
                        <path d="M35.1114,13.8195875 L28.0734,16.7884625" id="Stroke-13"/>
                        <polyline id="Stroke-15" points="35.1114 17.3955292 11.7186 27.1878625 0.5994 21.5666958"/>
                    </g>
                    <polyline id="Stroke-18" points="19.60572 24.8821208 19.60572 13.7582042 8.85132 8.14670417"/>
                    <polyline id="Stroke-19" points="16.746 4.810375 28.074 10.59225 28.074 21.2956667"/>
                    <g id="Group-26" transform="translate(15.600000, 7.037817)">
                        <path d="M3.74256,4.00296667 C4.26936,4.207175 5.03376,3.92684167 5.19816,3.36738333 C5.36016,2.8188 5.26536,2.264175 4.64856,1.95363333 C4.03056,1.64309167 3.30936,1.81105 2.87496,2.19650833 C2.40936,2.5868 1.73136,2.75959167 1.11456,2.44905 C0.49776,2.1373 0.38616,1.58146667 0.63936,1.07034167 C0.81096,0.725966667 1.18656,0.541091667 1.60296,0.550758333" id="Stroke-20"/>
                        <path d="M0.18528,0.4868375 L0.83808,0.815504167" id="Stroke-22"/>
                        <path d="M5.10864,3.554675 L5.71464,3.859175" id="Stroke-24"/>
                    </g>
                </g>
            </g>
        </g>
    </g>
</svg>