<?xml version="1.0" encoding="UTF-8" standalone="no"?>
<svg width="70px" height="70px" viewBox="0 0 70 70" version="1.1" xmlns="http://www.w3.org/2000/svg" xmlns:xlink="http://www.w3.org/1999/xlink">
    <!-- Generator: Sketch 41.2 (35397) - http://www.bohemiancoding.com/sketch -->
    <title>Page 1</title>
    <desc>Created with Sketch.</desc>
    <defs></defs>
    <g id="Final-Design" stroke="none" stroke-width="1" fill="none" fill-rule="evenodd">
        <g id="Everyday-Banking-Bar" transform="translate(-1022.000000, -502.000000)">
            <g id="Page-1" transform="translate(1022.000000, 502.000000)">
                <path d="M69.2963118,34.9304516 C69.2963118,53.9102366 53.9098602,69.2966882 34.9300753,69.2966882 C15.9502903,69.2966882 0.564591398,53.9102366 0.564591398,34.9304516 C0.564591398,15.9506667 15.9502903,0.564215054 34.9300753,0.564215054 C53.9098602,0.564215054 69.2963118,15.9506667 69.2963118,34.9304516 L69.2963118,34.9304516 Z" id="Stroke-1" fill="#EF5350"></path>
                <polyline id="Stroke-3" stroke="#FFFFFF" stroke-width="1.5" stroke-linecap="round" stroke-linejoin="round" points="45.7591505 40.6273978 44.362914 48.8324516 18.6345269 44.5330968 21.2267849 29.0194409 33.8561398 31.1307312"></polyline>
                <path d="M19.3321935,40.356957 C21.6384301,40.7423333 23.1957419,42.9243763 22.8103656,45.2306129" id="Stroke-5" stroke="#FFFFFF" stroke-width="1.5" stroke-linecap="round" stroke-linejoin="round"></path>
                <path d="M39.980086,48.0098387 C40.4068602,45.7239247 42.5384731,44.0680108 45.0976129,44.5151075" id="Stroke-7" stroke="#FFFFFF" stroke-width="1.5" stroke-linecap="round" stroke-linejoin="round"></path>
                <path d="M25.4028495,29.7176344 C25.0174731,32.023871 22.8354301,33.5811828 20.5291935,33.1958065" id="Stroke-9" stroke="#FFFFFF" stroke-width="1.5" stroke-linecap="round" stroke-linejoin="round"></path>
                <path d="M39.5600108,32.8240538 C39.1309785,32.9219032 38.6296882,32.9738387 38.1705484,32.9738387 C34.8722688,32.9738387 32.1987204,30.2995376 32.1987204,27.0012581 C32.1987204,23.7029785 34.8722688,21.0286774 38.1705484,21.0286774 C41.4695806,21.0286774 44.143129,23.7029785 44.143129,27.0012581 C44.143129,27.6199677 44.049043,28.3041613 43.875172,28.8656667" id="Stroke-11" stroke="#FFFFFF" stroke-width="1.5" stroke-linecap="round" stroke-linejoin="round"></path>
                <path d="M51.2263763,34.677172 C51.2263763,37.9754516 48.5520753,40.6497527 45.2537957,40.6497527 C41.9555161,40.6497527 39.2812151,37.9754516 39.2812151,34.677172 C39.2812151,31.3788925 41.9555161,28.7045914 45.2537957,28.7045914 C48.5520753,28.7045914 51.2263763,31.3788925 51.2263763,34.677172 L51.2263763,34.677172 Z" id="Stroke-13" stroke="#FFFFFF" stroke-width="1.5" stroke-linecap="round" stroke-linejoin="round"></path>
                <path d="M29.5847849,41.3038387 C30.1583333,42.0309355 31.1323118,42.679 31.8962903,42.8235161 C33.1186559,43.0538387 34.2725269,42.374914 34.4742473,41.3060968 C34.6759677,40.2372796 33.7177957,39.5086774 32.6263978,38.9531935 C31.4996237,38.3517957 30.576828,37.6691075 30.7785484,36.6002903 C30.9795161,35.5314731 32.1341398,34.8517957 33.3565054,35.082871 C34.1799462,35.2379247 34.8234946,35.7663118 35.0952151,36.4211505" id="Stroke-15" stroke="#FFFFFF" stroke-width="1.5" stroke-linecap="round" stroke-linejoin="round"></path>
                <path d="M33.6282258,33.6435806 L31.6245699,44.2625054" id="Stroke-17" stroke="#FFFFFF" stroke-width="1.5" stroke-linecap="round" stroke-linejoin="round"></path>
                <path d="M43.564086,36.8345269 C44.0856989,37.2891505 44.8910753,37.6301183 45.4721505,37.6301183 C46.4017204,37.6301183 47.1551613,36.9715161 47.1551613,36.1586129 C47.1551613,35.3457097 46.3505376,34.9437742 45.4721505,34.6871075 C44.5613978,34.401086 43.7891398,34.0277527 43.7891398,33.2148495 C43.7891398,32.4019462 44.5425806,31.7433441 45.4721505,31.7433441 C46.0976344,31.7433441 46.644086,32.0421613 46.933871,32.4854946" id="Stroke-19" stroke="#FFFFFF" stroke-width="1.5" stroke-linecap="round" stroke-linejoin="round"></path>
                <path d="M45.4719247,30.9390968 L45.4719247,31.7429677" id="Stroke-21" stroke="#FFFFFF" stroke-width="1.5" stroke-linecap="round" stroke-linejoin="round"></path>
                <path d="M45.4719247,37.630043 L45.4719247,38.433914" id="Stroke-23" stroke="#FFFFFF" stroke-width="1.5" stroke-linecap="round" stroke-linejoin="round"></path>
                <path d="M36.3753871,29.0973441 C36.897,29.5519677 37.7023763,29.8929355 38.2834516,29.8929355 C39.2130215,29.8929355 39.9664624,29.2343333 39.9664624,28.4214301 C39.9664624,27.6085269 39.1618387,27.2065914 38.2834516,26.949172 C37.3726989,26.6639032 36.5996882,26.2905699 36.5996882,25.4776667 C36.5996882,24.6647634 37.3538817,24.0061613 38.2834516,24.0061613 C38.9089355,24.0061613 39.4553871,24.3049785 39.745172,24.7483118" id="Stroke-25" stroke="#FFFFFF" stroke-width="1.5" stroke-linecap="round" stroke-linejoin="round"></path>
                <path d="M38.2832258,23.2020645 L38.2832258,24.0059355" id="Stroke-27" stroke="#FFFFFF" stroke-width="1.5" stroke-linecap="round" stroke-linejoin="round"></path>
                <path d="M38.2832258,30.1252151 L38.2832258,30.5693011" id="Stroke-29" stroke="#FFFFFF" stroke-width="1.5" stroke-linecap="round" stroke-linejoin="round"></path>
            </g>
        </g>
    </g>
</svg>