<?xml version="1.0" encoding="UTF-8" standalone="no"?>
<svg width="70px" height="70px" viewBox="0 0 70 70" version="1.1" xmlns="http://www.w3.org/2000/svg" xmlns:xlink="http://www.w3.org/1999/xlink">
    <!-- Generator: Sketch 41.2 (35397) - http://www.bohemiancoding.com/sketch -->
    <title>Page 1</title>
    <desc>Created with Sketch.</desc>
    <defs></defs>
    <g id="Final-Design" stroke="none" stroke-width="1" fill="none" fill-rule="evenodd">
        <g id="Everyday-Banking-Bar" transform="translate(-605.000000, -502.000000)">
            <g id="Page-1" transform="translate(605.000000, 502.000000)">
                <path d="M69.2963118,34.9304516 C69.2963118,53.9102366 53.9098602,69.2966882 34.9300753,69.2966882 C15.9502903,69.2966882 0.564591398,53.9102366 0.564591398,34.9304516 C0.564591398,15.9506667 15.9502903,0.564215054 34.9300753,0.564215054 C53.9098602,0.564215054 69.2963118,15.9506667 69.2963118,34.9304516 L69.2963118,34.9304516 Z" id="Stroke-1" fill="#EF5350"></path>
                <polyline id="Stroke-3" stroke="#FFFFFF" stroke-width="1.5" stroke-linecap="round" stroke-linejoin="round" points="23.5223333 27.9623656 23.5223333 25.9052688 46.3001828 25.9052688 46.3001828 27.9623656"></polyline>
                <polyline id="Stroke-5" stroke="#FFFFFF" stroke-width="1.5" stroke-linecap="round" stroke-linejoin="round" points="44.0531075 25.9054194 45.2310645 51.7166022 27.4104194 51.7406882 28.6312796 25.9054194"></polyline>
                <polyline id="Stroke-7" stroke="#FFFFFF" stroke-width="1.5" stroke-linecap="round" stroke-linejoin="round" points="27.7872151 43.7697957 24.4625914 43.7697957 26.2720538 25.9054946"></polyline>
                <path d="M40.2646022,51.6836344 C40.2608387,49.1403011 42.3691183,47.0854624 44.9658925,47.0816989" id="Stroke-9" stroke="#FFFFFF" stroke-width="1.5" stroke-linecap="round" stroke-linejoin="round"></path>
                <path d="M27.6292258,47.1133871 C30.226,47.1096237 32.1987957,49.1516667 32.2025591,51.695" id="Stroke-11" stroke="#FFFFFF" stroke-width="1.5" stroke-linecap="round" stroke-linejoin="round"></path>
                <path d="M39.1884086,39.3191505 C39.8138925,38.601086 40.2828172,37.4938817 40.2828172,36.6945269 C40.2828172,35.4157097 39.3765806,34.3785054 38.258086,34.3785054 C37.1403441,34.3785054 36.5871183,35.4857097 36.2333548,36.6945269 C35.8412043,37.947 35.3271183,39.0097957 34.2086237,39.0097957 C33.0908817,39.0097957 32.1838925,37.9733441 32.1838925,36.6945269 C32.1838925,35.8334516 32.5956129,35.0815161 33.2052903,34.6825914" id="Stroke-13" stroke="#FFFFFF" stroke-width="1.5" stroke-linecap="round" stroke-linejoin="round"></path>
                <path d="M30.6786667,36.6944516 L41.7883441,36.6944516" id="Stroke-15" stroke="#FFFFFF" stroke-width="1.5" stroke-linecap="round" stroke-linejoin="round"></path>
                <path d="M23.4676882,31.7989677 C21.7703763,31.6077849 20.5254301,30.1671398 20.5254301,28.4186452 L20.5254301,26.174129 C20.5254301,24.2954194 21.8998387,22.896172 23.7785484,22.896172 L46.0701613,22.896172 C47.948871,22.896172 49.3353226,24.2954194 49.3353226,26.174129 L49.3353226,28.4186452 C49.3353226,30.1897204 48.0873656,31.6454194 46.3576882,31.8057419" id="Stroke-17" stroke="#FFFFFF" stroke-width="1.5" stroke-linecap="round" stroke-linejoin="round"></path>
            </g>
        </g>
    </g>
</svg>