<?xml version="1.0" encoding="UTF-8" standalone="no"?>
<svg width="72px" height="72px" viewBox="0 0 72 72" version="1.1" xmlns="http://www.w3.org/2000/svg" xmlns:xlink="http://www.w3.org/1999/xlink">
    <!-- Generator: Sketch 41.2 (35397) - http://www.bohemiancoding.com/sketch -->
    <title>Page 1</title>
    <desc>Created with Sketch.</desc>
    <defs></defs>
    <g id="Final-Design" stroke="none" stroke-width="1" fill="none" fill-rule="evenodd" stroke-linecap="round" stroke-linejoin="round">
        <g id="Everyday-Banking-Bar" transform="translate(-188.000000, -501.000000)" stroke-width="1.5">
            <g id="Page-1" transform="translate(189.000000, 502.000000)">
                <path d="M69.2963118,34.9304516 C69.2963118,53.9102366 53.9098602,69.2966882 34.9300753,69.2966882 C15.9502903,69.2966882 0.564591398,53.9102366 0.564591398,34.9304516 C0.564591398,15.9506667 15.9502903,0.564215054 34.9300753,0.564215054 C53.9098602,0.564215054 69.2963118,15.9506667 69.2963118,34.9304516" id="Stroke-1" stroke="#EF5350" fill="#EF5350"></path>
                <path d="M31.8813871,31.3320753 C31.1219247,31.7325054 30.4181613,32.2360538 29.7896667,32.8314301 C29.2402043,30.5951935 23.6740753,27.0402473 23.6740753,29.4879892 L25.6528925,33.283043 C23.3466559,33.6917527 21.4212796,35.2949785 20.6633226,37.4446559 L19.1022473,38.067129 C18.6528925,38.1988495 18.2660108,38.4427204 18.2660108,38.9041183 C18.7198817,41.9690645 18.4541828,42.5237957 19.559129,42.8278817 L21.7494516,43.4247634 C23.2555806,45.2372366 25.6762258,46.1096022 28.0366559,45.6692796 L27.3878387,49.5659462 C27.3878387,50.3976667 28.0645054,51.0743333 28.8962258,51.0743333 C30.3714946,51.0743333 32.0778387,51.3031505 32.0778387,49.5659462 L32.2780538,47.7677742 C34.2546129,48.9540108 38.6947204,48.7515376 40.5290215,47.7986344 L40.7879462,49.5659462 C40.7879462,50.3976667 41.4646129,51.0743333 42.297086,51.0743333 L43.3192366,51.0743333 C44.1524624,51.0743333 45.4771935,50.3976667 45.4771935,49.5659462 L44.8283763,43.6001398 C45.3131075,42.6976667 45.6337527,41.7184194 45.7857957,40.7120753 C46.1839677,36.7476667 44.4610645,33.6955161 41.7303118,31.7957312" id="Stroke-3" stroke="#FFFFFF"></path>
                <path d="M42.3930538,24.0859462 C42.3930538,27.2901398 39.7955269,29.8884194 36.5905806,29.8884194 C33.3863871,29.8884194 30.7881075,27.2901398 30.7881075,24.0859462 C30.7881075,20.8817527 33.3863871,18.2834731 36.5905806,18.2834731 C39.7955269,18.2834731 42.3930538,20.8817527 42.3930538,24.0859462 L42.3930538,24.0859462 Z" id="Stroke-5" stroke="#FFFFFF"></path>
                <path d="M45.5827957,37.3186559 C47.2921505,36.5177957 49.7421505,34.660914 49.2845161,32.9161828 C48.7237634,30.7777957 45.6987097,30.3427419 46.8427957,33.6425269 C47.8995699,36.6939247 50.795914,35.4181183 51.5945161,33.9420968" id="Stroke-7" stroke="#FFFFFF"></path>
                <path id="Stroke-9" stroke="#FFFFFF"></path>
                <path d="M34.9403871,25.8172796 C35.3822151,26.2011505 36.0626452,26.4901828 36.5533978,26.4901828 C37.339957,26.4901828 37.9767312,25.9324409 37.9767312,25.2459892 C37.9767312,24.5580323 37.2963011,24.2178172 36.5533978,24.001043 C35.7833978,23.7601828 35.1300645,23.4440538 35.1300645,22.7568495 C35.1300645,22.0696452 35.7675914,21.5126559 36.5533978,21.5126559 C37.0825376,21.5126559 37.5446882,21.7648065 37.7900645,22.1396452" id="Stroke-11" stroke="#FFFFFF"></path>
                <path d="M36.5536237,20.8324516 L36.5536237,21.512129" id="Stroke-13" stroke="#FFFFFF"></path>
                <path d="M36.5536237,26.489957 L36.5536237,27.1696344" id="Stroke-15" stroke="#FFFFFF"></path>
            </g>
        </g>
    </g>
</svg>