<?xml version="1.0" encoding="UTF-8" standalone="no"?>
<svg width="20px" height="30px" viewBox="0 0 20 30" version="1.1" xmlns="http://www.w3.org/2000/svg" xmlns:xlink="http://www.w3.org/1999/xlink">
    <!-- Generator: sketchtool 40.1 (33804) - http://www.bohemiancoding.com/sketch -->
    <title>ADEC28A9-17FA-465D-AC20-8AA849C7864A</title>
    <desc>Created with sketchtool.</desc>
    <defs/>
    <g id="Symbols" stroke="none" stroke-width="1" fill="none" fill-rule="evenodd">
        <g id="Footer" transform="translate(-1051.000000, -110.000000)" fill="#FFFFFF">
            <g id="Group-11" transform="translate(878.000000, 108.000000)">
                <g id="Page-1" transform="translate(173.000000, 1.000000)">
                    <g id="Group-3" transform="translate(0.000000, 0.581100)">
                        <path d="M9.8042,28.5781 C8.0032,25.7641 1.0002,14.5421 1.0002,10.2231 C1.0002,5.3681 4.9502,1.4191 9.8042,1.4191 C14.6592,1.4191 18.6082,5.3681 18.6082,10.2231 C18.6082,14.5411 11.6052,25.7641 9.8042,28.5781 M9.8042,0.4191 C4.3982,0.4191 0.0002,4.8161 0.0002,10.2231 C0.0002,15.4511 9.0032,29.1921 9.3872,29.7741 C9.4792,29.9151 9.6352,30.0001 9.8042,30.0001 C9.9722,30.0001 10.1292,29.9151 10.2212,29.7741 C10.6052,29.1921 19.6082,15.4511 19.6082,10.2231 C19.6082,4.8161 15.2102,0.4191 9.8042,0.4191" id="Fill-1"/>
                    </g>
                    <path d="M9.8037,12.1797 C8.3087,12.1797 7.0927,10.9637 7.0927,9.4697 C7.0927,7.9747 8.3087,6.7577 9.8037,6.7577 C11.2987,6.7577 12.5157,7.9747 12.5157,9.4697 C12.5157,10.9637 11.2987,12.1797 9.8037,12.1797 M9.8037,5.7577 C7.7577,5.7577 6.0927,7.4227 6.0927,9.4697 C6.0927,11.5157 7.7577,13.1797 9.8037,13.1797 C11.8507,13.1797 13.5157,11.5157 13.5157,9.4697 C13.5157,7.4227 11.8507,5.7577 9.8037,5.7577" id="Fill-4"/>
                </g>
            </g>
        </g>
    </g>
</svg>