<?xml version="1.0" encoding="UTF-8" standalone="no"?>
<svg width="16px" height="29px" viewBox="0 0 16 29" version="1.1" xmlns="http://www.w3.org/2000/svg" xmlns:xlink="http://www.w3.org/1999/xlink">
    <!-- Generator: sketchtool 40.1 (33804) - http://www.bohemiancoding.com/sketch -->
    <title>CAF86D8E-5B9C-4C6F-BC00-F8ED72EBBF81</title>
    <desc>Created with sketchtool.</desc>
    <defs>
        <polygon id="path-1" points="7.9832 28.0645161 15.9661176 28.0645161 15.9661176 0.0112258065 7.9832 0.0112258065 0.000282352943 0.0112258065 0.000282352943 28.0645161"/>
    </defs>
    <g id="Symbols" stroke="none" stroke-width="1" fill="none" fill-rule="evenodd">
        <g id="Footer" transform="translate(-878.000000, -113.000000)">
            <g id="Group-11" transform="translate(878.000000, 108.000000)">
                <g id="Page-1" transform="translate(0.000000, 5.000000)">
                    <g id="Group-3" transform="translate(0.000000, 0.924539)">
                        <mask id="mask-2" fill="white">
                            <use xlink:href="#path-1"/>
                        </mask>
                        <g id="Clip-2"/>
                        <path d="M13.1475765,27.1290323 L2.81910588,27.1290323 C1.78381176,27.1290323 0.941458824,26.2655806 0.941458824,25.2047419 L0.941458824,22.4562903 L15.0252235,22.4562903 L15.0252235,25.2047419 C15.0252235,26.2655806 14.1828706,27.1290323 13.1475765,27.1290323 L13.1475765,27.1290323 Z M2.81910588,0.946709677 L13.1475765,0.946709677 C14.1828706,0.946709677 15.0252235,1.81016129 15.0252235,2.87006452 L15.0252235,4.68209677 L0.941458824,4.68209677 L0.941458824,2.87006452 C0.941458824,1.81016129 1.78381176,0.946709677 2.81910588,0.946709677 L2.81910588,0.946709677 Z M0.941458824,21.5208065 L15.0252235,21.5208065 L15.0252235,5.61758065 L0.941458824,5.61758065 L0.941458824,21.5208065 Z M13.1475765,0.0112258065 L2.81910588,0.0112258065 C1.26428235,0.0112258065 0.000282352943,1.29377419 0.000282352943,2.87006452 L0.000282352943,25.2047419 C0.000282352943,26.7819677 1.26428235,28.0645161 2.81910588,28.0645161 L13.1475765,28.0645161 C14.7014588,28.0645161 15.9664,26.7819677 15.9664,25.2047419 L15.9664,2.87006452 C15.9664,1.29377419 14.7014588,0.0112258065 13.1475765,0.0112258065 L13.1475765,0.0112258065 Z" id="Fill-1" fill="#FFFFFF" mask="url(#mask-2)"/>
                    </g>
                    <path d="M7.98305882,26.1971968 C7.73082353,26.1971968 7.52564706,25.9848419 7.52564706,25.7247774 C7.52564706,25.4637774 7.73082353,25.2514226 7.98305882,25.2514226 C8.23529412,25.2514226 8.44047059,25.4637774 8.44047059,25.7247774 C8.44047059,25.9848419 8.23529412,26.1971968 7.98305882,26.1971968 M7.98305882,24.3159387 C7.21223529,24.3159387 6.58447059,24.9483258 6.58447059,25.7247774 C6.58447059,26.501229 7.21223529,27.1326806 7.98305882,27.1326806 C8.75388235,27.1326806 9.38164706,26.501229 9.38164706,25.7247774 C9.38164706,24.9483258 8.75388235,24.3159387 7.98305882,24.3159387" id="Fill-4" fill="#FFFFFF"/>
                </g>
            </g>
        </g>
    </g>
</svg>