<?xml version="1.0" encoding="UTF-8" standalone="no"?>
<svg width="72px" height="72px" viewBox="0 0 72 72" version="1.1" xmlns="http://www.w3.org/2000/svg" xmlns:xlink="http://www.w3.org/1999/xlink">
    <!-- Generator: sketchtool 40.1 (33804) - http://www.bohemiancoding.com/sketch -->
    <title>780CDE99-0EF1-41A5-9F83-9CA64980FBA3</title>
    <desc>Created with sketchtool.</desc>
    <defs/>
    <g id="Final-Design" stroke="none" stroke-width="1" fill="none" fill-rule="evenodd" stroke-linecap="round" stroke-linejoin="round">
        <g id="Get-Help" transform="translate(-440.000000, -215.000000)" stroke="#37474F">
            <g id="Group-9" transform="translate(318.000000, 127.000000)">
                <g id="Group-18">
                    <g id="Group-2" transform="translate(123.000000, 89.000000)">
                        <g id="Page-1" stroke-width="1.5">
                            <path d="M69.2963118,34.9304516 C69.2963118,53.9102366 53.9098602,69.2966882 34.9300753,69.2966882 C15.9502903,69.2966882 0.564591398,53.9102366 0.564591398,34.9304516 C0.564591398,15.9506667 15.9502903,0.564215054 34.9300753,0.564215054 C53.9098602,0.564215054 69.2963118,15.9506667 69.2963118,34.9304516 L69.2963118,34.9304516 Z" id="Stroke-1"/>
                        </g>
                        <g id="Page-1" transform="translate(19.000000, 18.000000)" stroke-width="2">
                            <path d="M29.0198,16.7142 C29.0198,18.1912 27.2638,20.1622 27.6938,21.4032 C28.4748,21.7532 29.0198,22.5352 29.0198,23.4452 C29.0198,24.6812 28.0178,25.6832 26.7818,25.6832 C26.7688,25.6832 26.7558,25.6822 26.7428,25.6812 C26.2798,31.5792 19.6868,36.5572 15.3338,36.5572 C11.0928,36.5572 4.3888,31.5792 3.9248,25.6812 C3.9118,25.6822 3.8998,25.6832 3.8868,25.6832 C2.6498,25.6832 1.6478,24.6812 1.6478,23.4452 C1.6478,22.5352 2.1928,21.7532 2.9738,21.4032 C3.4428,19.9282 2.7648,15.1732 2.7648,13.6962" id="Stroke-1"/>
                            <path d="M18.8449,30.9811 C25.2489,30.9441 29.1919,30.4641 30.5399,27.0101 C31.2029,25.3111 31.0309,23.3121 29.3069,22.7191 C29.1279,22.6581 29.1309,22.6331 28.9429,22.6141" id="Stroke-3"/>
                            <path d="M18.8444,30.9836 C18.8444,31.6336 18.2344,32.1606 17.4814,32.1606 L16.9184,32.1606 C16.1664,32.1606 15.5564,31.6336 15.5564,30.9836 C15.5564,30.3336 16.1664,29.8076 16.9184,29.8076 L17.4814,29.8076 C18.2344,29.8076 18.8444,30.3336 18.8444,30.9836 L18.8444,30.9836 Z" id="Stroke-5"/>
                            <path d="M12.3126,30.4387 L13.4626,30.4387" id="Stroke-7"/>
                            <path d="M30.0185,17.062 C30.0185,17.062 12.3065,10.557 8.7345,15.558 C5.1625,20.56 6.6955,10.047 9.5905,7.803 C9.5905,7.803 2.1265,13.079 0.0405,17.384 C0.0405,17.384 -1.5515,0 15.2695,0 C33.4725,0 30.0185,17.062 30.0185,17.062 L30.0185,17.062 Z" id="Stroke-9"/>
                            <path d="M12.0789,20.7642 L10.5139,20.7642" id="Stroke-11"/>
                            <path d="M20.1958,20.7642 L18.6308,20.7642" id="Stroke-13"/>
                        </g>
                    </g>
                </g>
            </g>
        </g>
    </g>
</svg>